<?xml version='1.0' encoding='UTF-8'?>
<!DOCTYPE svg PUBLIC "-//W3C//DTD SVG 1.0//EN" "http://www.w3.org/TR/2001/REC-SVG-20010904/DTD/svg10.dtd">
<svg viewBox="0 0 1024 360" xmlns="http://www.w3.org/2000/svg" xmlns:inkspace="http://www.inkscape.org/namespaces/inkscape" xmlns:xlink="http://www.w3.org/1999/xlink">
  <defs id="defs_block">
    <filter height="1.504" id="filter_blur" inkspace:collect="always" width="1.1575" x="-0.07875" y="-0.252">
      <feGaussianBlur id="feGaussianBlur3780" inkspace:collect="always" stdDeviation="4.2" />
    </filter>
  </defs>
  <title>blockdiag</title>
  <desc>blockdiag {
  // Sapphire AI Recruitment Assistant Architecture
  orientation = portrait;
  Sapphire_AI [label="Sapphire AI: AI-Powered Recruitment Assistant"];
  Frontend [label="Frontend (React)"];
  Backend [label="Backend (Python, Flask)"];
  Database [label="Database (SQLite)"];
  AI_Engine [label="AI Engine (OpenAI ChatGPT)"];
  Onboarding_Page [label="Onboarding Page"];
  Jobs_Page [label="Jobs Page"];
  Email_Send_Overlay [label="Email Send Overlay"];
  Email_Generation_Page [label="Email Generation Page"];
  Sapphire_AI -&gt; Frontend -&gt; Backend -&gt; Database;
  Backend -&gt; AI_Engine;
  Frontend -&gt; Onboarding_Page, Jobs_Page, Email_Send_Overlay, Email_Generation_Page;
}</desc>
  <rect fill="rgb(0,0,0)" height="40" stroke="rgb(0,0,0)" style="filter:url(#filter_blur);opacity:0.7;fill-opacity:1" width="128" x="67" y="46" />
  <rect fill="rgb(0,0,0)" height="40" stroke="rgb(0,0,0)" style="filter:url(#filter_blur);opacity:0.7;fill-opacity:1" width="128" x="67" y="126" />
  <rect fill="rgb(0,0,0)" height="40" stroke="rgb(0,0,0)" style="filter:url(#filter_blur);opacity:0.7;fill-opacity:1" width="128" x="67" y="206" />
  <rect fill="rgb(0,0,0)" height="40" stroke="rgb(0,0,0)" style="filter:url(#filter_blur);opacity:0.7;fill-opacity:1" width="128" x="259" y="206" />
  <rect fill="rgb(0,0,0)" height="40" stroke="rgb(0,0,0)" style="filter:url(#filter_blur);opacity:0.7;fill-opacity:1" width="128" x="451" y="206" />
  <rect fill="rgb(0,0,0)" height="40" stroke="rgb(0,0,0)" style="filter:url(#filter_blur);opacity:0.7;fill-opacity:1" width="128" x="643" y="206" />
  <rect fill="rgb(0,0,0)" height="40" stroke="rgb(0,0,0)" style="filter:url(#filter_blur);opacity:0.7;fill-opacity:1" width="128" x="835" y="206" />
  <rect fill="rgb(0,0,0)" height="40" stroke="rgb(0,0,0)" style="filter:url(#filter_blur);opacity:0.7;fill-opacity:1" width="128" x="67" y="286" />
  <rect fill="rgb(0,0,0)" height="40" stroke="rgb(0,0,0)" style="filter:url(#filter_blur);opacity:0.7;fill-opacity:1" width="128" x="259" y="286" />
  <rect fill="rgb(255,255,255)" height="40" stroke="rgb(0,0,0)" width="128" x="64" y="40" />
  <text fill="rgb(0,0,0)" font-family="sans-serif" font-size="11" font-style="normal" font-weight="normal" text-anchor="middle" textLength="125" x="128.5" y="60">Sapphire AI: AI-Power</text>
  <text fill="rgb(0,0,0)" font-family="sans-serif" font-size="11" font-style="normal" font-weight="normal" text-anchor="middle" textLength="127" x="128.5" y="73">ed Recruitment Assi ...</text>
  <rect fill="rgb(255,255,255)" height="40" stroke="rgb(0,0,0)" width="128" x="64" y="120" />
  <text fill="rgb(0,0,0)" font-family="sans-serif" font-size="11" font-style="normal" font-weight="normal" text-anchor="middle" textLength="96" x="128.0" y="146">Frontend (React)</text>
  <rect fill="rgb(255,255,255)" height="40" stroke="rgb(0,0,0)" width="128" x="64" y="200" />
  <text fill="rgb(0,0,0)" font-family="sans-serif" font-size="11" font-style="normal" font-weight="normal" text-anchor="middle" textLength="125" x="128.5" y="220">Backend (Python, Flas</text>
  <text fill="rgb(0,0,0)" font-family="sans-serif" font-size="11" font-style="normal" font-weight="normal" text-anchor="middle" textLength="11" x="128.5" y="234">k)</text>
  <rect fill="rgb(255,255,255)" height="40" stroke="rgb(0,0,0)" width="128" x="256" y="200" />
  <text fill="rgb(0,0,0)" font-family="sans-serif" font-size="11" font-style="normal" font-weight="normal" text-anchor="middle" textLength="97" x="320.5" y="227">Onboarding Page</text>
  <rect fill="rgb(255,255,255)" height="40" stroke="rgb(0,0,0)" width="128" x="448" y="200" />
  <text fill="rgb(0,0,0)" font-family="sans-serif" font-size="11" font-style="normal" font-weight="normal" text-anchor="middle" textLength="55" x="512.5" y="227">Jobs Page</text>
  <rect fill="rgb(255,255,255)" height="40" stroke="rgb(0,0,0)" width="128" x="640" y="200" />
  <text fill="rgb(0,0,0)" font-family="sans-serif" font-size="11" font-style="normal" font-weight="normal" text-anchor="middle" textLength="111" x="704.5" y="227">Email Send Overlay</text>
  <rect fill="rgb(255,255,255)" height="40" stroke="rgb(0,0,0)" width="128" x="832" y="200" />
  <text fill="rgb(0,0,0)" font-family="sans-serif" font-size="11" font-style="normal" font-weight="normal" text-anchor="middle" textLength="128" x="896.0" y="227">Email Generation Page</text>
  <rect fill="rgb(255,255,255)" height="40" stroke="rgb(0,0,0)" width="128" x="64" y="280" />
  <text fill="rgb(0,0,0)" font-family="sans-serif" font-size="11" font-style="normal" font-weight="normal" text-anchor="middle" textLength="103" x="128.5" y="307">Database (SQLite)</text>
  <rect fill="rgb(255,255,255)" height="40" stroke="rgb(0,0,0)" width="128" x="256" y="280" />
  <text fill="rgb(0,0,0)" font-family="sans-serif" font-size="11" font-style="normal" font-weight="normal" text-anchor="middle" textLength="125" x="320.5" y="300">AI Engine (OpenAI Ch</text>
  <text fill="rgb(0,0,0)" font-family="sans-serif" font-size="11" font-style="normal" font-weight="normal" text-anchor="middle" textLength="39" x="320.5" y="314">atGPT)</text>
  <path d="M 128 80 L 128 112" fill="none" stroke="rgb(0,0,0)" />
  <polygon fill="rgb(0,0,0)" points="128,119 124,112 132,112 128,119" stroke="rgb(0,0,0)" />
  <path d="M 128 160 L 128 192" fill="none" stroke="rgb(0,0,0)" />
  <polygon fill="rgb(0,0,0)" points="128,199 124,192 132,192 128,199" stroke="rgb(0,0,0)" />
  <path d="M 128 160 L 128 180" fill="none" stroke="rgb(0,0,0)" />
  <path d="M 128 180 L 320 180" fill="none" stroke="rgb(0,0,0)" />
  <path d="M 320 180 L 320 192" fill="none" stroke="rgb(0,0,0)" />
  <polygon fill="rgb(0,0,0)" points="320,199 316,192 324,192 320,199" stroke="rgb(0,0,0)" />
  <path d="M 128 160 L 128 180" fill="none" stroke="rgb(0,0,0)" />
  <path d="M 128 180 L 512 180" fill="none" stroke="rgb(0,0,0)" />
  <path d="M 512 180 L 512 192" fill="none" stroke="rgb(0,0,0)" />
  <polygon fill="rgb(0,0,0)" points="512,199 508,192 516,192 512,199" stroke="rgb(0,0,0)" />
  <path d="M 128 160 L 128 180" fill="none" stroke="rgb(0,0,0)" />
  <path d="M 128 180 L 704 180" fill="none" stroke="rgb(0,0,0)" />
  <path d="M 704 180 L 704 192" fill="none" stroke="rgb(0,0,0)" />
  <polygon fill="rgb(0,0,0)" points="704,199 700,192 708,192 704,199" stroke="rgb(0,0,0)" />
  <path d="M 128 160 L 128 180" fill="none" stroke="rgb(0,0,0)" />
  <path d="M 128 180 L 896 180" fill="none" stroke="rgb(0,0,0)" />
  <path d="M 896 180 L 896 192" fill="none" stroke="rgb(0,0,0)" />
  <polygon fill="rgb(0,0,0)" points="896,199 892,192 900,192 896,199" stroke="rgb(0,0,0)" />
  <path d="M 128 240 L 128 272" fill="none" stroke="rgb(0,0,0)" />
  <polygon fill="rgb(0,0,0)" points="128,279 124,272 132,272 128,279" stroke="rgb(0,0,0)" />
  <path d="M 128 240 L 128 260" fill="none" stroke="rgb(0,0,0)" />
  <path d="M 128 260 L 320 260" fill="none" stroke="rgb(0,0,0)" />
  <path d="M 320 260 L 320 272" fill="none" stroke="rgb(0,0,0)" />
  <polygon fill="rgb(0,0,0)" points="320,279 316,272 324,272 320,279" stroke="rgb(0,0,0)" />
</svg>
